<svg width="24" height="24" viewBox="0 0 24 24" fill="none" xmlns="http://www.w3.org/2000/svg">
    <path d="M12 0C5.388 0 0 5.388 0 12C0 18.612 5.388 24 12 24C18.612 24 24 18.612 24 12C24 5.388 18.612 0 12 0ZM11.1 7.2C11.1 6.708 11.508 6.3 12 6.3C12.492 6.3 12.9 6.708 12.9 7.2V13.2C12.9 13.692 12.492 14.1 12 14.1C11.508 14.1 11.1 13.692 11.1 13.2V7.2ZM13.104 17.256C13.044 17.412 12.96 17.532 12.852 17.652C12.732 17.76 12.6 17.844 12.456 17.904C12.312 17.964 12.156 18 12 18C11.844 18 11.688 17.964 11.544 17.904C11.4 17.844 11.268 17.76 11.148 17.652C11.04 17.532 10.956 17.412 10.896 17.256C10.836 17.112 10.8 16.956 10.8 16.8C10.8 16.644 10.836 16.488 10.896 16.344C10.956 16.2 11.04 16.068 11.148 15.948C11.268 15.84 11.4 15.756 11.544 15.696C11.832 15.576 12.168 15.576 12.456 15.696C12.6 15.756 12.732 15.84 12.852 15.948C12.96 16.068 13.044 16.2 13.104 16.344C13.164 16.488 13.2 16.644 13.2 16.8C13.2 16.956 13.164 17.112 13.104 17.256Z" fill="#292D32"/>
</svg>
